<svg width="82px" height="36px" viewBox="0 0 82 36" version="1.1" xmlns="http://www.w3.org/2000/svg"><title>Btn/JoinVIP</title><g id="顶导航" stroke="none" stroke-width="1" fill="none" fill-rule="evenodd"><g id="02-顶导航---元素状态" transform="translate(-203.000000, -2767.000000)"><g id="编组" transform="translate(203.000000, 2767.000000)"><rect id="btn" fill="#F2BF83" x="0" y="0" width="82" height="36" rx="4"></rect><g transform="translate(16.000000, 7.000000)" id="ic/header/vip"><rect id="Rectangle" x="0" y="0" width="22" height="22"></rect><path d="M15.2916667,12.8333333 C15.7058802,12.8333333 16.0416667,13.1691198 16.0416667,13.5833333 L16.0413333,14.666 L17.125,14.6666667 C17.5392136,14.6666667 17.875,15.0024531 17.875,15.4166667 L17.875,15.75 C17.875,16.1642136 17.5392136,16.5 17.125,16.5 L16.0413333,16.5 L16.0416667,17.5833333 C16.0416667,17.9975469 15.7058802,18.3333333 15.2916667,18.3333333 L14.9583333,18.3333333 C14.5441198,18.3333333 14.2083333,17.9975469 14.2083333,17.5833333 L14.2083333,16.5 L13.125,16.5 C12.7107864,16.5 12.375,16.1642136 12.375,15.75 L12.375,15.4166667 C12.375,15.0024531 12.7107864,14.6666667 13.125,14.6666667 L14.2083333,14.666 L14.2083333,13.5833333 C14.2083333,13.1691198 14.5441198,12.8333333 14.9583333,12.8333333 L15.2916667,12.8333333 Z M11.5298645,2.9160613 C11.6216255,2.97977719 11.7011958,3.05952425 11.7647705,3.15148919 L15.114965,7.71220927 C15.1790093,7.80485362 15.3000173,7.83830521 15.4023946,7.79166667 L19.1801704,6.28209128 C19.5309915,6.12227286 19.9446595,6.27774297 20.1041236,6.6293435 C20.1565615,6.74496308 20.1765927,6.87271196 20.1620674,6.99887821 L19.6843612,10.9811187 C19.6391414,11.3580784 19.3193623,11.6417898 18.9396999,11.6417898 L18.4928734,11.6417898 C18.0786598,11.6417898 17.7428734,11.3060033 17.7428734,10.8917898 C17.7428734,10.8499208 17.7463794,10.8081253 17.7533547,10.7668414 L18.0187887,9.19584475 C18.0241894,9.15210797 18.0171086,9.10773279 17.9983673,9.06786544 C17.9436199,8.95140405 17.8050369,8.90147362 17.6888337,8.95634271 L15.4023946,9.62366057 C14.8888397,9.82065328 14.4355933,9.66938898 14.2420618,9.38644746 L11.3831608,5.90763869 C11.3508431,5.86039041 11.3101137,5.81951598 11.2630134,5.78706336 C11.0513085,5.64119644 10.7617013,5.69494996 10.6161578,5.90712521 L7.7645351,9.38686686 C7.57100276,9.66900075 7.14030965,9.79486084 6.67563279,9.62366057 L4.29810525,8.92843546 C4.25881772,8.90994126 4.21515036,8.90283421 4.17204238,8.90791816 C4.04446844,8.92296365 3.95321907,9.0388093 3.9682312,9.16666667 L4.82201131,15.5993907 C4.8726534,16.030706 5.0684767,16.0977727 5.49921672,16.1451721 C6.49737409,16.2550032 7.64436378,16.345381 8.94018578,16.4163054 C9.3378623,16.4380989 9.64916992,16.7669113 9.64916992,17.1651845 L9.64916992,17.5552023 C9.64918472,17.9694241 9.31339166,18.3052171 8.89916992,18.3052171 L8.88200724,18.3050208 L8.88200724,18.3050208 C8.53609201,18.2971031 8.29354975,18.2909844 8.15438048,18.2866649 C6.76913772,18.2436697 5.44169168,18.1729108 4.17204238,18.0743882 C3.7280545,18.0399388 3.16093035,17.4642006 2.99041239,16.9583333 C2.87673376,16.6210885 2.49259546,13.3012701 1.83799751,6.99887821 C1.79382567,6.61520514 2.06835633,6.26828877 2.45117889,6.2240188 C2.57706547,6.20946115 2.70453115,6.22953692 2.81989444,6.28209128 L6.67563279,7.79166667 C6.77801013,7.83830521 6.8990181,7.80485362 6.96306243,7.71220927 L10.2352944,3.15148919 C10.5279125,2.72819769 11.1075113,2.62279303 11.5298645,2.9160613 Z" id="Combined-Shape" fill="#111319"></path></g><text id="Renew" font-family="SFPro-Bold, SF Pro" font-size="14" font-weight="bold" fill="#111319"><tspan x="42.2336426" y="24">VIP</tspan></text></g></g></g></svg>